<?xml version="1.0" encoding="utf-8"?>
<svg version="1.1" xmlns:xlink="http://www.w3.org/1999/xlink" width="21px" height="31px" xmlns="http://www.w3.org/2000/svg">
  <g transform="matrix(1 0 0 1 -1419 -82 )">
    <path d="M 14.2119140625 13.986328125  C 15.2373046875 12.9772135416667  15.75 11.7595486111111  15.75 10.3333333333333  C 15.75 8.90711805555555  15.2373046875 7.689453125  14.2119140625 6.68033854166667  C 13.1865234375 5.67122395833333  11.94921875 5.16666666666667  10.5 5.16666666666667  C 9.05078125 5.16666666666667  7.8134765625 5.67122395833333  6.7880859375 6.68033854166667  C 5.7626953125 7.689453125  5.25 8.90711805555555  5.25 10.3333333333333  C 5.25 11.7595486111111  5.7626953125 12.9772135416667  6.7880859375 13.986328125  C 7.8134765625 14.9954427083333  9.05078125 15.5  10.5 15.5  C 11.94921875 15.5  13.1865234375 14.9954427083333  14.2119140625 13.986328125  Z M 17.923828125 3.02734375  C 19.974609375 5.04557291666667  21 7.48090277777777  21 10.3333333333333  C 21 11.7999131944444  20.7744140625 13.0041232638889  20.3232421875 13.9459635416667  L 12.8583984375 29.5670572916667  C 12.6396484375 30.0110677083333  12.31494140625 30.3608940972222  11.88427734375 30.6165364583333  C 11.45361328125 30.8721788194444  10.9921875 31  10.5 31  C 10.0078125 31  9.54638671875 30.8721788194444  9.11572265625 30.6165364583333  C 8.68505859375 30.3608940972222  8.3671875 30.0110677083333  8.162109375 29.5670572916667  L 0.6767578125 13.9459635416667  C 0.2255859375 13.0041232638889  0 11.7999131944444  0 10.3333333333333  C 0 7.48090277777777  1.025390625 5.04557291666667  3.076171875 3.02734375  C 5.126953125 1.00911458333333  7.6015625 0  10.5 0  C 13.3984375 0  15.873046875 1.00911458333333  17.923828125 3.02734375  Z " fill-rule="nonzero" fill="#000000" stroke="none" transform="matrix(1 0 0 1 1419 82 )" />
  </g>
</svg>