<?xml version="1.0" encoding="utf-8"?>
<svg version="1.1" xmlns:xlink="http://www.w3.org/1999/xlink" width="32px" height="31px" xmlns="http://www.w3.org/2000/svg">
  <g transform="matrix(1 0 0 1 -1335 -81 )">
    <path d="M 11.5769230769231 26.2002840909091  C 12.0641025641026 26.7580492424242  12.3076923076923 27.4185606060606  12.3076923076923 28.1818181818182  C 12.3076923076923 28.9450757575758  12.0641025641026 29.6055871212121  11.5769230769231 30.1633522727273  C 11.0897435897436 30.7211174242424  10.5128205128205 31  9.84615384615385 31  C 9.17948717948718 31  8.6025641025641 30.7211174242424  8.11538461538462 30.1633522727273  C 7.62820512820513 29.6055871212121  7.38461538461539 28.9450757575758  7.38461538461539 28.1818181818182  C 7.38461538461539 27.4185606060606  7.62820512820513 26.7580492424242  8.11538461538462 26.2002840909091  C 8.6025641025641 25.6425189393939  9.17948717948718 25.3636363636364  9.84615384615385 25.3636363636364  C 10.5128205128205 25.3636363636364  11.0897435897436 25.6425189393939  11.5769230769231 26.2002840909091  Z M 28.8076923076923 26.2002840909091  C 29.2948717948718 26.7580492424242  29.5384615384615 27.4185606060606  29.5384615384615 28.1818181818182  C 29.5384615384615 28.9450757575758  29.2948717948718 29.6055871212121  28.8076923076923 30.1633522727273  C 28.3205128205128 30.7211174242424  27.7435897435897 31  27.0769230769231 31  C 26.4102564102564 31  25.8333333333333 30.7211174242424  25.3461538461538 30.1633522727273  C 24.8589743589744 29.6055871212121  24.6153846153846 28.9450757575758  24.6153846153846 28.1818181818182  C 24.6153846153846 27.4185606060606  24.8589743589744 26.7580492424242  25.3461538461538 26.2002840909091  C 25.8333333333333 25.6425189393939  26.4102564102564 25.3636363636364  27.0769230769231 25.3636363636364  C 27.7435897435897 25.3636363636364  28.3205128205128 25.6425189393939  28.8076923076923 26.2002840909091  Z M 31.6346153846154 3.23650568181818  C 31.8782051282051 3.51538825757575  32 3.84564393939394  32 4.22727272727273  L 32 15.5  C 32 15.8522727272727  31.8942307692308 16.1641808712121  31.6826923076923 16.4357244318182  C 31.4711538461538 16.7072679924242  31.2115384615385 16.8650568181818  30.9038461538462 16.9090909090909  L 10.8269230769231 19.5951704545455  C 10.9935897435897 20.4758522727273  11.0769230769231 20.9895833333333  11.0769230769231 21.1363636363636  C 11.0769230769231 21.3712121212121  10.9230769230769 21.8409090909091  10.6153846153846 22  L 28.3076923076923 22  C 28.6410256410256 22.5454545454545  28.9294871794872 22.6848958333333  29.1730769230769 22.9637784090909  C 29.4166666666667 23.2426609848485  29.5384615384615 23.5729166666667  29.5384615384615 23.9545454545455  C 29.5384615384615 24.3361742424242  29.4166666666667 24.6664299242424  29.1730769230769 24.9453125  C 28.9294871794872 25.2241950757576  28.6410256410256 25.3636363636364  28.3076923076923 25  L 8.61538461538462 25  C 8.28205128205128 25.3636363636364  7.99358974358974 25.2241950757576  7.75 24.9453125  C 7.50641025641026 24.6664299242424  7.38461538461539 24.3361742424242  7.38461538461539 23.9545454545455  C 7.38461538461539 23.7930871212121  7.43589743589744 23.5619081439394  7.53846153846154 23.2610085227273  C 7.64102564102564 22.9601089015151  7.74358974358974 22.6959043560606  7.84615384615385 22.4683948863636  C 7.94871794871795 22.2408854166667  8.08653846153846 21.9473248106061  8.25961538461539 21.5877130681818  C 8.43269230769231 21.2281013257576  8.53205128205128 21.0116003787879  8.55769230769231 20.9382102272727  L 5.15384615384615 2.81818181818182  L 1.23076923076923 2.81818181818182  C 0.897435897435898 2.81818181818182  0.608974358974359 2.67874053030303  0.365384615384615 2.39985795454545  C 0.121794871794872 2.12097537878788  0 1.7907196969697  0 1.40909090909091  C 0 1.02746212121212  0.121794871794872 0.697206439393935  0.365384615384615 0.418323863636365  C 0.608974358974359 0.139441287878785  0.897435897435898 0  1.23076923076923 0  L 6.15384615384615 0  C 6.35897435897436 0  6.54166666666667 0.0477035984848464  6.70192307692308 0.143110795454546  C 6.86217948717949 0.238517992424242  6.98717948717949 0.352272727272727  7.07692307692308 0.484375  C 7.16666666666667 0.616477272727273  7.25 0.796283143939389  7.32692307692308 1.02379261363637  C 7.40384615384616 1.25130208333333  7.45512820512821 1.44211647727273  7.48076923076923 1.59623579545455  C 7.50641025641026 1.75035511363637  7.54166666666667 1.96685606060606  7.58653846153846 2.24573863636363  C 7.63141025641026 2.52462121212121  7.66025641025641 2.7154356060606  7.67307692307692 3  L 30.7692307692308 3  C 31.1025641025641 2.81818181818182  31.3910256410256 2.9576231060606  31.6346153846154 3.23650568181818  Z " fill-rule="nonzero" fill="#000000" stroke="none" transform="matrix(1 0 0 1 1335 81 )" />
  </g>
</svg>