<?xml version="1.0" encoding="utf-8"?>
<svg version="1.1" xmlns:xlink="http://www.w3.org/1999/xlink" width="31px" height="31px" xmlns="http://www.w3.org/2000/svg">
  <g transform="matrix(1 0 0 1 -1277 -80 )">
    <path d="M 11.43125 7.75  C 11.43125 5.5025  13.2525 3.68125  15.5 3.68125  C 17.7475 3.68125  19.56875 5.5025  19.56875 7.75  C 19.56875 9.9975  17.7475 11.81875  15.5 11.81875  C 13.2525 11.81875  11.43125 9.9975  11.43125 7.75  Z M 3.68125 25.1875  C 3.68125 23.9475  9.745625 21.11875  15.5 21.11875  C 21.254375 21.11875  27.31875 23.9475  27.31875 25.1875  L 27.31875 27  L 3.68125 27  L 3.68125 25.1875  Z M 23.25 7.75  C 23.25 3.468125  19.781875 0  15.5 0  C 11.218125 0  7.75 3.468125  7.75 7.75  C 7.75 12.031875  11.218125 15.5  15.5 15.5  C 19.781875 15.5  23.25 12.031875  23.25 7.75  Z M 31 25.1875  C 31 20.03375  20.673125 17.4375  15.5 17.4375  C 10.326875 17.4375  0 20.03375  0 25.1875  L 0 31  L 31 31  L 31 25.1875  Z " fill-rule="nonzero" fill="#000000" stroke="none" transform="matrix(1 0 0 1 1277 80 )" />
  </g>
</svg>